<?xml version="1.0" encoding="UTF-8" standalone="no"?>
<!DOCTYPE svg PUBLIC "-//W3C//DTD SVG 1.1//EN"
 "http://www.w3.org/Graphics/SVG/1.1/DTD/svg11.dtd">
<!-- Generated by graphviz version 7.0.0 (0)
 -->
<!-- Pages: 1 -->
<svg width="706pt" height="188pt"
 viewBox="0.00 0.00 705.92 188.00" xmlns="http://www.w3.org/2000/svg" xmlns:xlink="http://www.w3.org/1999/xlink">
<g id="graph0" class="graph" transform="scale(1 1) rotate(0) translate(4 184)">
<polygon fill="white" stroke="none" points="-4,4 -4,-184 701.92,-184 701.92,4 -4,4"/>
<!-- 4 -->
<g id="node1" class="node">
<title>4</title>
<g id="a_node1"><a xlink:href="https://github.com/Sixstring982/test-repo/pull/4" xlink:title="Feature 4">
<ellipse fill="none" stroke="black" cx="55.9" cy="-162" rx="55.79" ry="18"/>
<text text-anchor="middle" x="55.9" y="-158.3" font-family="Times,serif" font-size="14.00">Feature 4</text>
</a>
</g>
</g>
<!-- 2 -->
<g id="node2" class="node">
<title>2</title>
<g id="a_node2"><a xlink:href="https://github.com/Sixstring982/test-repo/pull/2" xlink:title="Feature 2">
<ellipse fill="none" stroke="black" cx="169.9" cy="-90" rx="55.79" ry="18"/>
<text text-anchor="middle" x="169.9" y="-86.3" font-family="Times,serif" font-size="14.00">Feature 2</text>
</a>
</g>
</g>
<!-- 4&#45;&gt;2 -->
<g id="edge1" class="edge">
<title>4&#45;&gt;2</title>
<path fill="none" stroke="black" d="M80.91,-145.64C96.95,-135.79 117.98,-122.88 135.57,-112.08"/>
<polygon fill="black" stroke="black" points="136.96,-115.33 143.65,-107.12 133.29,-109.37 136.96,-115.33"/>
</g>
<!-- 1 -->
<g id="node3" class="node">
<title>1</title>
<g id="a_node3"><a xlink:href="https://github.com/Sixstring982/test-repo/pull/1" xlink:title="Feature 1">
<ellipse fill="none" stroke="black" cx="356.9" cy="-90" rx="55.79" ry="18"/>
<text text-anchor="middle" x="356.9" y="-86.3" font-family="Times,serif" font-size="14.00">Feature 1</text>
</a>
</g>
</g>
<!-- 4&#45;&gt;1 -->
<g id="edge2" class="edge">
<title>4&#45;&gt;1</title>
<path fill="none" stroke="black" d="M97.8,-149.81C105.47,-147.83 113.41,-145.82 120.9,-144 182.09,-129.13 252.59,-113.49 300.48,-103.09"/>
<polygon fill="black" stroke="black" points="301.03,-106.55 310.06,-101.01 299.55,-99.71 301.03,-106.55"/>
</g>
<!-- Sixstring982:main -->
<g id="node5" class="node">
<title>Sixstring982:main</title>
<ellipse fill="none" stroke="black" cx="234.9" cy="-18" rx="96.68" ry="18"/>
<text text-anchor="middle" x="234.9" y="-14.3" font-family="Times,serif" font-size="14.00">Sixstring982:main</text>
</g>
<!-- 2&#45;&gt;Sixstring982:main -->
<g id="edge5" class="edge">
<title>2&#45;&gt;Sixstring982:main</title>
<path fill="none" stroke="black" d="M185.3,-72.41C193.12,-63.99 202.78,-53.58 211.49,-44.2"/>
<polygon fill="black" stroke="black" points="213.88,-46.77 218.12,-37.07 208.75,-42.01 213.88,-46.77"/>
</g>
<!-- 1&#45;&gt;Sixstring982:main -->
<g id="edge6" class="edge">
<title>1&#45;&gt;Sixstring982:main</title>
<path fill="none" stroke="black" d="M330.42,-73.81C313.87,-64.31 292.25,-51.91 273.77,-41.3"/>
<polygon fill="black" stroke="black" points="275.6,-38.32 265.19,-36.38 272.12,-44.39 275.6,-38.32"/>
</g>
<!-- 3 -->
<g id="node4" class="node">
<title>3</title>
<g id="a_node4"><a xlink:href="https://github.com/Sixstring982/test-repo/pull/3" xlink:title="Feature 3: unsafe chars in title? [abc] (def) {ghi} &#39;foo&#39; &#39;bar&#39;">
<ellipse fill="none" stroke="black" cx="413.9" cy="-162" rx="284.05" ry="18"/>
<text text-anchor="middle" x="413.9" y="-158.3" font-family="Times,serif" font-size="14.00">Feature 3: unsafe chars in title? [abc] (def) {ghi} &#39;foo&#39; &#39;bar&#39;</text>
</a>
</g>
</g>
<!-- 3&#45;&gt;1 -->
<g id="edge3" class="edge">
<title>3&#45;&gt;1</title>
<path fill="none" stroke="black" d="M393.89,-143.7C386.58,-135.73 378.52,-126.1 371.72,-117.26"/>
<polygon fill="black" stroke="black" points="374.6,-115.27 365.83,-109.32 368.98,-119.44 374.6,-115.27"/>
</g>
<!-- 3&#45;&gt;1 -->
<g id="edge4" class="edge">
<title>3&#45;&gt;1</title>
<path fill="none" stroke="black" d="M405.72,-143.7C399.7,-135.23 391.46,-124.89 383.41,-115.61"/>
<polygon fill="black" stroke="black" points="386.12,-113.39 376.84,-108.27 380.91,-118.06 386.12,-113.39"/>
</g>
</g>
</svg>
